<?xml version="1.0" encoding="UTF-8"?>
<svg id="Calque_2" data-name="Calque 2" xmlns="http://www.w3.org/2000/svg" viewBox="0 0 278.22 305.57">
  <defs>
    <style>
      .cls-1 {
        fill: none;
      }

      .cls-1, .cls-2 {
        stroke: #0a0a0a;
        stroke-miterlimit: 10;
        stroke-width: 7px;
      }

      .cls-2 {
        fill: #0a0a0a;
      }
    </style>
  </defs>
  <g id="Calque_2-2" data-name="Calque 2">
    <path class="cls-1" d="M157.49,132.27c0,12.89-7.04,13.6-13.74,13.6h-9.98v-25.94h11.5c6.35,0,12.22.71,12.22,12.34Z"/>
    <path class="cls-1" d="M263.3,3.5H14.92c-6.31,0-11.42,5.11-11.42,11.42v98.24c0,23.87,4.34,47.58,13.17,69.76,6.72,16.87,16.73,35.69,31.73,54.2,33.28,41.06,73.08,58.28,90.71,64.72,17.68-6.49,57.34-23.77,90.57-64.72,15-18.49,25.03-37.3,31.77-54.17,8.89-22.24,13.27-46.04,13.27-70V14.92c0-6.31-5.11-11.42-11.42-11.42ZM158.77,174.9c-3.04.94-6.3,1.4-9.74,1.4h-15.26v38.66l-14.32-7.86-11.51-6.32v-113.61h43.21c22.78,0,30.76,25.42,30.76,43.68,0,15.2-3.28,26.43-8.91,33.92-3.78,5.04-8.62,8.4-14.23,10.13Z"/>
    <circle class="cls-1" cx="47.89" cy="37.16" r="12.53"/>
    <circle class="cls-1" cx="139.11" cy="37.16" r="12.53"/>
    <circle class="cls-1" cx="230.08" cy="37.16" r="12.53"/>
    <path class="cls-1" d="M157.49,132.27c0,12.89-7.04,13.6-13.74,13.6h-9.98v-25.94h11.5c6.35,0,12.22.71,12.22,12.34Z"/>
    <path class="cls-1" d="M158.77,174.9v73.7c0,8.76-7.16,15.92-15.92,15.92h-7.49c-8.75,0-15.91-7.16-15.91-15.92v-41.5l14.32,7.86v-38.66h15.26c3.44,0,6.7-.46,9.74-1.4Z"/>
    <path class="cls-1" d="M230.08,54.14v141.36c0,4.52-1.91,8.62-4.97,11.53-2.86,2.71-6.71,4.38-10.94,4.38h-7.49c-8.75,0-15.92-7.16-15.92-15.91v-30.73h-17.76c5.63-7.49,8.91-18.72,8.91-33.92,0-18.26-7.98-43.68-30.76-43.68h-43.21v77.6h-20.73v30.73c0,8.75-7.16,15.91-15.92,15.91h-7.49c-8.75,0-15.91-7.16-15.91-15.91l-.3-141.36c10.03,3.38,26.55,10.23,46.77,9.53,19.58-.68,35.06-5.61,44.75-9.53,8.93,3.91,25.16,9.65,46.14,9.53,20.28-.12,35.99-5.66,44.83-9.53Z"/>
    <path class="cls-1" d="M157.49,132.27c0,12.89-7.04,13.6-13.74,13.6h-9.98v-25.94h11.5c6.35,0,12.22.71,12.22,12.34Z"/>
    <path class="cls-1" d="M76.91,84.26v50.29c0,10.95,1.99,21.83,6.04,32,1.18,2.96,2.59,6.06,4.26,9.23,1.33,2.52,2.82,5.08,4.49,7.65,1.73,2.65,3.66,5.32,5.81,7.97,5.38,6.65,11.15,11.95,16.72,16.14,1.77,1.33,3.51,2.55,5.22,3.66,8.12,5.32,15.34,8.31,19.66,9.89,4.33-1.59,11.55-4.6,19.66-9.92,1.81-1.18,3.66-2.48,5.54-3.91.73-.56,1.47-1.15,2.21-1.74,4.74-3.84,9.57-8.5,14.13-14.12,2.15-2.65,4.07-5.32,5.8-7.97,1.6-2.46,3.04-4.9,4.31-7.3.96-1.79,1.82-3.54,2.61-5.27.67-1.47,1.28-2.89,1.84-4.29,4.09-10.2,6.09-21.12,6.09-32.11v-50.2h-124.39ZM158.77,174.9c-3.04.94-6.3,1.4-9.74,1.4h-15.26v38.66l-14.32-7.86-11.51-6.32v-113.61h43.21c22.78,0,30.76,25.42,30.76,43.68,0,15.2-3.28,26.43-8.91,33.92-3.78,5.04-8.62,8.4-14.23,10.13Z"/>
    <g>
      <path class="cls-2" d="M157.49,132.27c0,12.89-7.04,13.6-13.74,13.6h-9.98v-25.94h11.5c6.35,0,12.22.71,12.22,12.34Z"/>
      <path class="cls-2" d="M76.91,84.26v50.29c0,10.95,1.99,21.83,6.04,32,1.18,2.96,2.59,6.06,4.26,9.23,1.33,2.52,2.82,5.08,4.49,7.65,1.73,2.65,3.66,5.32,5.81,7.97,5.38,6.65,11.15,11.95,16.72,16.14,1.77,1.33,3.51,2.55,5.22,3.66,8.12,5.32,15.34,8.31,19.66,9.89,4.33-1.59,11.55-4.6,19.66-9.92,1.81-1.18,3.66-2.48,5.54-3.91.73-.56,1.47-1.15,2.21-1.74,4.74-3.84,9.57-8.5,14.13-14.12,2.15-2.65,4.07-5.32,5.8-7.97,1.6-2.46,3.04-4.9,4.31-7.3.96-1.79,1.82-3.54,2.61-5.27.67-1.47,1.28-2.89,1.84-4.29,4.09-10.2,6.09-21.12,6.09-32.11v-50.2h-124.39ZM158.77,174.9c-3.04.94-6.3,1.4-9.74,1.4h-15.26v38.66l-14.32-7.86-11.51-6.32v-113.61h43.21c22.78,0,30.76,25.42,30.76,43.68,0,15.2-3.28,26.43-8.91,33.92-3.78,5.04-8.62,8.4-14.23,10.13Z"/>
      <path class="cls-1" d="M151.15,87.17h-43.21v113.61l11.51,6.32,14.32,7.86v-38.66h15.26c3.44,0,6.7-.46,9.74-1.4,5.61-1.73,10.45-5.09,14.23-10.13,5.63-7.49,8.91-18.72,8.91-33.92,0-18.26-7.98-43.68-30.76-43.68ZM143.75,145.87h-9.98v-25.94h11.5c6.35,0,12.22.71,12.22,12.34,0,12.89-7.04,13.6-13.74,13.6Z"/>
    </g>
  </g>
</svg>