<svg width="82" height="96" viewBox="0 0 82 96" fill="none" xmlns="http://www.w3.org/2000/svg">
<path d="M63.8078 44.4941C63.3973 44.2959 62.9803 44.1052 62.5579 43.9226C61.8222 30.2691 54.4151 22.4525 41.9779 22.3725C41.9215 22.3721 41.8655 22.3722 41.8092 22.3722C34.3701 22.3722 28.1831 25.5704 24.375 31.3904L31.2151 36.1164C34.0599 31.7692 38.5245 30.8424 41.8124 30.8424C41.8504 30.8424 41.8885 30.8424 41.9261 30.8428C46.0212 30.8691 49.1114 32.0683 51.1115 34.407C52.567 36.1096 53.5405 38.4625 54.0225 41.4319C50.3917 40.8103 46.465 40.6192 42.2673 40.8616C30.4426 41.5477 22.8407 48.4939 23.3512 58.146C23.6103 63.042 26.0319 67.254 30.1697 70.0055C33.6681 72.3315 38.1739 73.469 42.8567 73.2115C49.0409 72.87 53.8924 70.4935 57.277 66.148C59.8474 62.848 61.4732 58.5715 62.191 53.183C65.1382 54.9745 67.3225 57.332 68.5287 60.166C70.5799 64.9835 70.6996 72.9 64.2864 79.354C58.6674 85.008 51.9132 87.454 41.7057 87.5295C30.3827 87.445 21.8194 83.7875 16.2517 76.6585C11.0381 69.983 8.34361 60.341 8.24309 48C8.34361 35.6589 11.0381 26.0168 16.2517 19.3414C21.8194 12.2125 30.3826 8.555 41.7055 8.47025C53.1106 8.55565 61.8232 12.2307 67.6039 19.394C70.4385 22.9068 72.5755 27.3244 73.9844 32.4752L82 30.3211C80.2923 23.9811 77.6052 18.5179 73.9486 13.987C66.5376 4.80334 55.6989 0.097574 41.7335 0H41.6776C27.7405 0.097235 17.0231 4.8209 9.82323 14.0396C3.41629 22.2432 0.111396 33.6579 0.00034749 47.9663L0 48L0.00034749 48.0337C0.111396 62.342 3.41629 73.757 9.82323 81.9605C17.0231 91.179 27.7405 95.903 41.6776 96H41.7335C54.1242 95.9135 62.8582 92.646 70.0532 85.4055C79.4668 75.933 79.1833 64.0595 76.0807 56.7705C73.8548 51.5435 69.6109 47.2981 63.8078 44.4941ZM42.414 64.7535C37.2315 65.0475 31.8473 62.7045 31.5818 57.686C31.385 53.965 34.2109 49.813 42.7321 49.3184C43.7079 49.2617 44.6655 49.234 45.6062 49.234C48.7014 49.234 51.597 49.5368 54.2295 50.1165C53.2476 62.4675 47.4882 64.473 42.414 64.7535Z" fill="black"/>
</svg>
